<svg xmlns="http://www.w3.org/2000/svg" version="1.0" viewBox="0 0 1024 1024"><style>path{fill:#000}@media (prefers-color-scheme:dark){path{fill:#fff}}</style><path d="M483 221.1c-34.1 3.5-68.6 13.6-99.4 29.1-15.7 7.8-18.9 9.7-32.6 18.9-15.8 10.7-26.4 19.3-40.4 32.9-15.5 15.1-26.5 28.2-38.4 46-26 38.9-41.5 81.5-46.8 129.1-2.2 20-1.4 60.9 1.5 79.4 8 49.5 26.1 92.3 56.1 132.4 32.9 44.1 77.4 77.8 127.5 96.6 80.3 30.1 164 24.3 238.9-16.5 25.1-13.7 45.2-28.6 64.1-47.5C753 681.9 780 633.9 793 580c10-41.6 10.5-89.6 1.5-130.1-7.8-34.6-21.5-67.6-39.7-95.6-48.9-75.2-124.4-122.7-210.8-132.8-13.6-1.6-46.9-1.8-61-.4zm58.2 35.4c56.4 6.6 109.1 31.4 149.2 70.4 9.3 9.1 22.6 24.4 22.6 26.1 0 .4-6.4 3.9-14.2 7.8-24 11.9-36.6 22.5-73.3 61.7l-21.6 23 2.3 1.9c4.1 3.3 17.7 9.6 20.7 9.6 2.5 0 5.4-2.6 19.1-16.9 18.2-19.1 34.3-33.9 45.9-42.2 13.9-9.9 38-21.1 40.7-18.8 2 1.6 16.1 30.8 19.9 41.2 5.5 15 10.1 31.9 12.4 45.7 11 64.6-3.1 133.3-38.6 188.4-5.5 8.5-18.1 25.1-21.8 28.8l-2.7 2.8-4.2-3.3c-2.2-1.7-24.2-23.4-48.8-48-35.7-36-45-44.8-46.5-44.3-3.1 1-18.3 17.1-18.3 19.4 0 1.3 16.3 17.8 48 48.7 26.4 25.7 48 47.3 48 48.1 0 4.1-34.2 27.4-55.5 37.9-18.1 8.9-30.4 13.5-48 18-59.4 15.2-121.4 8.9-176-18-21.1-10.3-54.1-32.8-56.2-38.2-.7-1.7 18.5-21.3 50.7-52.1 10.7-10.2 20-19.6 20.5-20.8.6-1.2 1.8-3.1 2.8-4.1 1.6-1.9 1.6-2.3-.2-9.4-1-4.1-2.4-10.8-3.1-15-1.5-9.4-2.1-10.5-4.8-9-1.1.6-10.3 10-20.4 20.8-29.2 31.4-65.9 68.3-67.7 68.3-2.8 0-5.6-3.3-15.7-18.7-20.8-31.7-31.9-54.2-40.4-81.9-6-19.5-10-44.1-10-61.9v-10.4l3.8-.6c24.9-4.1 40.2-8.8 56.1-17.1 20.8-10.8 40.5-27.1 64.8-53.7 8.1-8.9 17.9-19.5 21.7-23.7 3.8-4.1 21.1-21.7 38.6-39 50.7-50.5 65.1-69.8 78.5-105.6 2.1-5.4 4-11.6 4.3-13.7.6-4.4-.2-4.3 17.4-2.2zm-51.1 1.7c-6.8 17.4-16.8 36.1-26.3 49.1-7 9.4-36.9 43.4-52.5 59.6-9.3 9.6-10.2 10.3-12 9-1-.8-14.4-14.1-29.6-29.5l-27.8-28.2 5.3-4.5c14.3-12.1 37.9-26.8 57.2-35.5 25.1-11.4 62.2-21.3 82.3-22 4-.2 4.2-.1 3.4 2zM348.6 367.1c14.8 16 28.4 30.8 30.3 33l3.5 4-10.5 10.5c-31.7 32-55.5 49.4-80.4 58.9-7.4 2.8-32.1 9.6-32.7 8.9-.8-.7 1.4-17.2 3.8-29.4 6.7-33.2 23.4-70.1 44.2-97.5 4.4-5.8 14.3-17.5 14.7-17.5.1 0 12.3 13.1 27.1 29.1z"/><path d="M459 403c-7.4 3.5-11.9 8.7-14.1 16.4-.5 1.6-.9 44.5-.9 95.3l-.1 92.5 2.5 4.3c7.4 12.5 22.5 17.1 34.7 10.7 7-3.7 148.8-91 151.3-93.1 3.6-3.1 6.8-10 7.3-15.8.8-8.7-1-14-6.5-19.2-3-2.8-27.9-18-70.2-42.8-93.9-55-84.2-49.7-92.5-50.1-5.4-.2-8 .2-11.5 1.8z"/></svg>